<svg width="50" height="50" viewBox="0 0 50 50" fill="none" xmlns="http://www.w3.org/2000/svg">
<g clip-path="url(#clip0_58_17)">
<path d="M49.9973 16.6471V17.7708C49.9387 17.8125 49.8634 17.8623 49.7881 17.9122L47.9212 19.1857C47.7957 19.269 47.645 19.3688 47.4943 19.4771C46.7157 19.9931 45.7028 20.684 45.0331 21.1252L28.6501 32.2039L28.131 32.5535L26.6074 33.5856C26.4148 33.7104 26.1888 33.8103 25.9377 33.8769C25.8372 33.9102 25.72 33.9269 25.6112 33.9435C25.5944 33.9518 25.5777 33.9518 25.5694 33.9518C25.3768 33.9768 25.1844 33.9768 25.0001 33.9685C24.8159 33.9768 24.6234 33.9768 24.4308 33.9518C24.3053 33.9351 24.1797 33.9101 24.0625 33.8769C23.8113 33.8103 23.5853 33.7103 23.3927 33.5855L22.7063 33.1193L21.8692 32.5534L4.96707 21.1253C4.78289 21.0004 4.57361 20.8589 4.33923 20.7091C3.7533 20.3179 3.06677 19.8518 2.50584 19.4772C2.35515 19.3689 2.20447 19.2691 2.07888 19.1858L0.212085 17.9123C0.136792 17.8624 0.0614014 17.8125 0.00280762 17.7709V16.6472C0.00280762 16.4558 0.0279053 16.306 0.0697998 16.1644C0.0697998 16.1562 0.0781982 16.1562 0.0781982 16.1562C0.120093 16.1229 0.16189 16.0979 0.212085 16.0645L0.814819 15.6483L2.07888 14.791C2.8741 14.2584 4.17175 13.3761 4.96697 12.8517L23.3927 0.391211C23.8365 0.108203 24.4224 -0.025 25.0001 0.00830078C25.0587 0.00830078 25.1089 0 25.1676 0H25.176C25.695 0 26.214 0.133301 26.6075 0.391309L45.0332 12.8517C45.6945 13.2845 46.6991 13.967 47.4776 14.4915C47.6367 14.5996 47.7874 14.6996 47.9213 14.791L49.1853 15.6483L49.7881 16.0645C49.8383 16.0978 49.8801 16.1228 49.9219 16.1562C49.9722 16.2976 49.9973 16.4557 49.9973 16.6471Z" fill="url(#paint0_linear_58_17)"/>
<path d="M50.0001 21.6295V22.7468C49.939 22.7901 49.8605 22.8421 49.791 22.8941L47.9181 24.1672C47.1255 24.6955 45.8275 25.5788 45.0349 26.1072L26.6116 38.5616C26.4113 38.6915 26.1848 38.7867 25.9409 38.8561C25.6448 38.9427 25.3138 38.9687 25.0002 38.9513C24.6866 38.9687 24.3556 38.9426 24.0595 38.8561C23.8155 38.7867 23.5891 38.6915 23.3888 38.5616L4.96542 26.1071C4.17274 25.5787 2.87479 24.6954 2.08221 24.1671L0.209265 22.8941C0.139734 22.842 0.0612183 22.7901 0.000183105 22.7468V21.6295C0.000183105 21.439 0.026355 21.283 0.0699097 21.1446C0.0699097 21.1359 0.0786011 21.1359 0.0786011 21.1359C0.122156 21.1012 0.16571 21.0751 0.209167 21.0404L0.819031 20.6247L2.08212 19.7673C2.87469 19.239 4.17264 18.3557 4.96532 17.8273L23.3887 5.37297C23.8329 5.08713 24.4252 4.95715 25.0001 4.99182C25.575 4.95715 26.1761 5.08703 26.6115 5.37297L45.0349 17.8273C45.8275 18.3557 47.1255 19.239 47.9181 19.7673L49.1811 20.6247L49.791 21.0404C49.8345 21.0751 49.878 21.1011 49.9216 21.1359C49.9739 21.2743 50.0001 21.439 50.0001 21.6295Z" fill="url(#paint1_linear_58_17)"/>
<path d="M25.6111 30.7138V34.2263H25.5106L24.3888 34.3012H0.00268555V16.9715C0.00268555 16.7801 0.0277832 16.6219 0.0696777 16.4887C0.0696777 16.4804 0.0780762 16.4804 0.0780762 16.4804C0.170166 16.1891 0.354346 16.0226 0.597119 15.981L1.6436 16.5969L2.13745 16.8882L4.3894 18.2117L4.50659 18.2782L5.93813 19.1189L22.2291 28.7243L22.2625 28.741L25.4939 30.6388L25.6111 30.7138Z" fill="#5156DB"/>
<path d="M26.0463 32.8364C26.0463 32.8447 25.879 32.9613 25.6111 33.1527C25.4436 33.2609 25.2343 33.4025 25 33.5689C24.8828 33.6438 24.7572 33.727 24.6233 33.8186L24.4307 33.9517L24.0624 34.2014L23.9033 34.3013L21.2998 36.0576C21.0235 36.2407 20.7472 36.4321 20.4961 36.607C20.019 36.9316 19.6254 37.1979 19.4916 37.2811C19.299 37.4226 18.4954 37.9637 17.7 38.5047L13.3468 41.4429L13.33 41.4596L13.3217 41.4679L2.6397 48.6762C2.45552 48.8012 2.25464 48.9343 2.06206 49.0675C1.95317 49.1424 1.84438 49.209 1.7356 49.2839H0.831494C0.345947 49.2839 0.0696777 49.1757 0.011084 48.9926C0.011084 48.9843 0.011084 48.9843 0.011084 48.9843C0.011084 48.951 0.00268555 48.926 0.011084 48.8844C0.00268555 48.8344 0.00268555 48.7845 0.00268555 48.7262V16.9717C0.00268555 16.7803 0.0277832 16.6221 0.0696777 16.4888C0.0696777 16.4805 0.0780762 16.4805 0.0780762 16.4805C0.170166 16.1892 0.354346 16.0227 0.597119 15.9811C0.672412 15.9561 0.739404 15.9561 0.814795 15.9644C0.998975 15.9727 1.20825 16.056 1.43433 16.2058L4.3978 18.2035L4.50659 18.2784L5.78745 19.144C5.81255 19.1607 5.83765 19.1773 5.86274 19.194C6.64966 19.7267 7.88862 20.5675 8.65884 21.0835L23.6438 31.2133C23.6606 31.2216 23.6773 31.23 23.6857 31.2383C23.7108 31.255 23.7359 31.2716 23.761 31.2883C23.9619 31.4214 24.1544 31.5547 24.3302 31.6711C24.6233 31.8625 24.8577 32.029 25 32.1289C25.0836 32.1789 25.1423 32.2121 25.1506 32.2204C25.1841 32.2453 25.3934 32.3869 25.6111 32.545C25.6195 32.545 25.6195 32.5533 25.6278 32.5533C25.8539 32.7115 26.0463 32.828 26.0463 32.8364Z" fill="#5175E1"/>
<path d="M49.9868 16.7943C49.994 16.8919 49.9999 17.0794 49.9999 17.211V48.4836C49.9999 48.6152 49.9999 48.7481 49.9999 48.779C49.9999 48.81 49.9912 48.9009 49.9912 48.9176C49.9912 48.9343 49.9912 48.948 49.9912 48.9826C49.9912 48.9826 49.9912 48.9846 49.9912 48.9869C49.9912 48.9893 49.9147 49.0575 49.8213 49.1384C49.7278 49.2194 49.0647 49.2856 48.9332 49.2856H48.5056C48.3741 49.2856 48.177 49.2258 48.0676 49.1529L47.5593 48.8121C47.45 48.7391 47.2713 48.6192 47.1623 48.5454L32.4976 38.6367C32.3886 38.5631 32.2103 38.4426 32.1013 38.369L30.7025 37.4165C30.5939 37.3423 30.4159 37.2213 30.307 37.1476L28.8996 36.195C28.7909 36.121 28.6127 36.0003 28.5036 35.9268L26.1387 34.3321C26.0297 34.2585 25.8512 34.1383 25.7421 34.0649L25.5727 33.9509C25.4636 33.8775 25.2846 33.7579 25.1751 33.6853C25.1751 33.6853 25.1131 33.6442 24.9998 33.5662C24.3987 33.1505 23.9545 32.8473 23.9545 32.8386C23.9545 32.8299 24.1462 32.7088 24.3726 32.5529C24.599 32.3969 24.6544 32.3589 24.6544 32.3589C24.7629 32.2845 24.8654 32.214 24.8821 32.202C24.8989 32.1901 25.0881 32.0669 25.196 31.9918C25.196 31.9918 25.6965 31.6435 26.2367 31.2883C26.2629 31.2709 26.2629 31.2709 26.2629 31.2709C26.2916 31.2519 26.321 31.2325 26.3281 31.2277C26.3352 31.2229 26.4213 31.1674 26.498 31.1151C26.5747 31.0627 26.7266 30.9596 26.8356 30.886L41.143 21.2196C41.252 21.1459 41.4302 21.0253 41.5391 20.9515L44.0174 19.2793C44.1264 19.2058 44.3049 19.0855 44.4138 19.0118L48.3641 16.3435C48.4731 16.2699 48.6571 16.1587 48.773 16.0965C48.773 16.0965 48.877 16.0343 48.9848 16.0105C49.0927 15.9867 49.2855 15.992 49.4135 16.0225L49.7838 16.2825C49.8595 16.3902 49.9796 16.6966 49.9868 16.7943Z" fill="#587ADF"/>
<path d="M49.9999 44.7904V48.7226C49.9999 48.7831 49.9999 48.8352 49.9912 48.8871C49.9999 48.9218 49.9912 48.9478 49.9912 48.9824C49.9912 48.9824 49.9912 48.9824 49.9912 48.9911C49.9302 49.1729 49.6514 49.2854 49.1724 49.2854H4.5296L13.3188 41.4647L13.3275 41.4561L24.3291 31.6693L25.4006 30.7252L25.6879 30.4653L26.6374 31.0197L49.9999 44.7904Z" fill="#5156DB"/>
<path d="M49.9999 48.5754V48.7227C49.9999 48.7832 49.9999 48.8353 49.9912 48.8872C49.9999 48.9219 49.9912 48.9479 49.9912 48.9825C49.9912 48.9825 49.9912 48.9825 49.9912 48.9912C49.9302 49.173 49.6514 49.2855 49.1724 49.2855H0.827539C0.348535 49.2855 0.0697266 49.173 0.00869141 48.9912C0.00869141 48.9825 0.00869141 48.9825 0.00869141 48.9825C0.00869141 48.9479 0 48.9219 0.00869141 48.8872C0 48.8353 0 48.7832 0 48.7227V48.5754C0.078418 48.4715 0.191699 48.3676 0.339746 48.2636L23.5888 31.3055C23.5975 31.3055 23.5975 31.2969 23.6062 31.2883C23.6324 31.2709 23.6586 31.2536 23.6847 31.2363C24.1637 30.8984 24.6516 30.6646 25 30.5781C25.122 30.6127 25.2525 30.656 25.4008 30.7253C25.6795 30.8379 26.0018 31.0198 26.3153 31.2363C26.3501 31.2622 26.3763 31.2796 26.4111 31.3055L49.6601 48.2636C49.8081 48.3762 49.9214 48.4801 49.9999 48.5754Z" fill="#5451F5"/>
</g>
<defs>
<linearGradient id="paint0_linear_58_17" x1="25.0001" y1="33.9735" x2="25.0001" y2="-9.71992e-05" gradientUnits="userSpaceOnUse">
<stop stop-color="#515AE1"/>
<stop offset="0.7685" stop-color="#608CF0"/>
</linearGradient>
<linearGradient id="paint1_linear_58_17" x1="25.0001" y1="38.9564" x2="25.0001" y2="4.98638" gradientUnits="userSpaceOnUse">
<stop stop-color="#515AE1"/>
<stop offset="0.7685" stop-color="#608CF0"/>
</linearGradient>
<clipPath id="clip0_58_17">
<rect width="50" height="50" fill="white"/>
</clipPath>
</defs>
</svg>
