<svg width="157" height="157" viewBox="0 0 157 157" fill="none" xmlns="http://www.w3.org/2000/svg">
<g clip-path="url(#clip0_109_116)">
<path d="M78.4988 0C35.1464 0 0.000686646 35.1432 0.000686646 78.5006C0.000686646 121.853 35.1464 157 78.4988 157C121.854 157 156.999 121.853 156.999 78.5006C156.999 35.1432 121.854 0 78.4988 0Z" fill="#0B2F9F" stroke="black" stroke-width="0.008"/>
<path d="M128.595 67.3591L41.1443 73.2526C41.1443 73.2526 20.5979 92.1934 27.0762 100.439C33.3497 108.423 45.3265 119.45 68.1401 114.127C68.1401 114.127 107.81 101.199 119.217 93.5949C119.217 93.5949 145.706 83.3287 128.595 67.3591Z" fill="#F5F5F5" stroke="black" stroke-width="0.008"/>
<path d="M128.595 67.3591C124.414 24.3938 82.9686 28.9567 82.9686 28.9567C38.1025 34.2797 39.8805 76.9919 41.9047 79.9068C48.2412 89.0323 66.5782 94.255 75.8721 97.144C94.629 102.974 109.838 93.8483 109.838 93.8483C134.933 84.7232 128.595 67.3591 128.595 67.3591Z" fill="#F5F5F5" stroke="black" stroke-width="0.008"/>
<path d="M112.88 36.8146C112.88 36.8146 108.317 29.4637 100.712 28.9568C78.0874 27.4477 48.1143 43.9757 43.2982 81.7447C43.2982 81.7447 47.5453 85.9902 53.1218 88.7789C59.4095 91.9236 69.471 95.0524 69.471 95.0524C69.471 95.0524 54.8324 41.1238 112.88 36.8146Z" fill="#EEECE8" stroke="black" stroke-width="0.008"/>
<path d="M100.712 28.9568C78.0874 27.4477 48.1143 43.9757 43.2982 81.7447C43.2982 81.7447 47.5453 85.9902 53.1218 88.7789C53.1218 88.7789 53.0518 62.4096 68.267 47.9678C83.2221 33.7728 108.737 32.297 108.737 32.297C106.711 30.6696 103.995 29.1757 100.712 28.9568Z" fill="#F0E8E0" stroke="black" stroke-width="0.008"/>
</g>
<defs>
<clipPath id="clip0_109_116">
<rect width="157" height="157" fill="white"/>
</clipPath>
</defs>
</svg>
