<svg width="50" height="50" viewBox="0 0 50 50" fill="none" xmlns="http://www.w3.org/2000/svg">
<g clip-path="url(#clip0_58_34)">
<path d="M43.6809 25.0001V33.1876C43.6873 33.7895 43.5632 34.3857 43.3171 34.935C43.071 35.4844 42.7088 35.9739 42.2554 36.3699C41.802 36.7659 41.2681 37.0589 40.6907 37.2289C40.1132 37.3988 39.5057 37.4416 38.9101 37.3542C30.6538 36.2936 22.985 32.5161 17.1121 26.6168C11.2393 20.7176 7.49615 13.0319 6.4726 4.7709C6.38556 4.17704 6.42785 3.57139 6.59657 2.9954C6.76529 2.4194 7.05646 1.88665 7.45015 1.43361C7.84384 0.980568 8.33076 0.617927 8.87759 0.370506C9.42442 0.123084 10.0182 -0.00327882 10.6184 6.46582e-05H18.6809C19.196 -0.00305977 19.6939 0.184703 20.0786 0.527116C20.4634 0.869528 20.7076 1.34232 20.7643 1.85423C20.971 4.58459 21.6771 7.25382 22.8476 9.72923C23.0483 10.198 23.0701 10.7242 22.9088 11.208C22.7476 11.6918 22.4145 12.0996 21.9726 12.3542L20.1809 13.3751C19.9227 13.5171 19.6975 13.7123 19.5203 13.9478C19.3431 14.1833 19.2178 14.4537 19.1528 14.7412C19.0879 15.0287 19.0846 15.3267 19.1433 15.6155C19.202 15.9044 19.3214 16.1774 19.4934 16.4167C21.5545 19.4359 24.1618 22.0431 27.1809 24.1042C27.4202 24.2763 27.6933 24.3956 27.9821 24.4543C28.271 24.513 28.569 24.5098 28.8564 24.4448C29.1439 24.3798 29.4144 24.2546 29.6499 24.0774C29.8854 23.9002 30.0806 23.675 30.2226 23.4167L31.2434 21.6251C31.5133 21.1774 31.9415 20.8476 32.4432 20.7009C32.9449 20.5543 33.4833 20.6016 33.9518 20.8334C36.4272 22.0039 39.0964 22.71 41.8268 22.9167C42.3387 22.9734 42.8115 23.2176 43.1539 23.6024C43.4963 23.9871 43.6841 24.485 43.6809 25.0001Z" fill="#1771C4"/>
<path d="M43.6809 12.5C43.6809 9.18479 42.364 6.00537 40.0198 3.66117C37.6756 1.31696 34.4961 0 31.1809 0" stroke="black" stroke-width="0.528" stroke-linecap="round" stroke-linejoin="round"/>
<path d="M31.1809 8.3335C32.286 8.3335 33.3458 8.77248 34.1272 9.55388C34.9086 10.3353 35.3476 11.3951 35.3476 12.5002" stroke="black" stroke-width="0.528" stroke-linecap="round" stroke-linejoin="round"/>
<path d="M43.6809 25.0001V33.1876C43.6873 33.7895 43.5632 34.3857 43.3171 34.935C43.071 35.4844 42.7088 35.9739 42.2554 36.3699C41.802 36.7659 41.2681 37.0589 40.6907 37.2289C40.1132 37.3988 39.5057 37.4416 38.9101 37.3542C30.6538 36.2936 22.985 32.5161 17.1121 26.6168C11.2393 20.7176 7.49615 13.0319 6.4726 4.7709C6.38556 4.17704 6.42785 3.57139 6.59657 2.9954C6.76529 2.4194 7.05646 1.88665 7.45015 1.43361C7.84384 0.980568 8.33076 0.617927 8.87759 0.370506C9.42442 0.123084 10.0182 -0.00327882 10.6184 6.46582e-05H18.6809C19.196 -0.00305977 19.6939 0.184703 20.0786 0.527116C20.4634 0.869528 20.7076 1.34232 20.7643 1.85423C20.971 4.58459 21.6771 7.25382 22.8476 9.72923C23.0483 10.198 23.0701 10.7242 22.9088 11.208C22.7476 11.6918 22.4145 12.0996 21.9726 12.3542L20.1809 13.3751C19.9227 13.5171 19.6975 13.7123 19.5203 13.9478C19.3431 14.1833 19.2178 14.4537 19.1528 14.7412C19.0879 15.0287 19.0846 15.3267 19.1433 15.6155C19.202 15.9044 19.3214 16.1774 19.4934 16.4167C21.5545 19.4359 24.1618 22.0431 27.1809 24.1042C27.4202 24.2763 27.6933 24.3956 27.9821 24.4543C28.271 24.513 28.569 24.5098 28.8564 24.4448C29.1439 24.3798 29.4144 24.2546 29.6499 24.0774C29.8854 23.9002 30.0806 23.675 30.2226 23.4167L31.2434 21.6251C31.5133 21.1774 31.9415 20.8476 32.4432 20.7009C32.9449 20.5543 33.4833 20.6016 33.9518 20.8334C36.4272 22.0039 39.0964 22.71 41.8268 22.9167C42.3387 22.9734 42.8115 23.2176 43.1539 23.6024C43.4963 23.9871 43.6841 24.485 43.6809 25.0001Z" stroke="black" stroke-width="0.528" stroke-linecap="round" stroke-linejoin="round"/>
</g>
<defs>
<clipPath id="clip0_58_34">
<rect width="50" height="50" fill="white"/>
</clipPath>
</defs>
</svg>
