<svg width="157" height="157" viewBox="0 0 157 157" fill="none" xmlns="http://www.w3.org/2000/svg">
<path d="M106.742 63.1067C76.4608 56.4679 101.283 14.4734 59.7949 17.9538C18.3064 21.4342 -21.0356 116.968 52.6195 139.338C126.275 161.707 164.221 75.7249 106.742 63.1067Z" fill="#464BD8"/>
<path d="M60.0096 36.1223L44.8922 113.074V36.1223H60.0096ZM62.4014 36.1223L46.5787 116.677L44.8922 116.339V113.074L60.0096 36.1223H62.4014Z" fill="#2E2E42"/>
<path d="M64.5632 36.1223L64.7779 36.1683L48.8785 117.137L46.5787 116.677L62.4014 36.1223H64.5632Z" fill="#2D2D41"/>
<path d="M48.8833 117.137L64.7907 36.1838L67.0925 36.6361L51.1851 117.59L48.8833 117.137Z" fill="#2D2D40"/>
<path d="M51.1768 117.589L67.0842 36.6357L69.3859 37.088L53.4785 118.042L51.1768 117.589Z" fill="#2C2C3F"/>
<path d="M53.4852 118.044L69.3926 37.0903L71.6944 37.5426L55.787 118.496L53.4852 118.044Z" fill="#2B2B3E"/>
<path d="M55.7788 118.496L71.6862 37.5421L73.988 37.9944L58.0806 118.948L55.7788 118.496Z" fill="#2A2A3D"/>
<path d="M58.0873 118.951L73.9947 37.9969L76.2965 38.4492L60.3891 119.403L58.0873 118.951Z" fill="#2A2A3C"/>
<path d="M60.3807 119.402L76.2881 38.4485L78.5899 38.9008L62.6825 119.854L60.3807 119.402Z" fill="#29293B"/>
<path d="M62.6743 119.854L78.5817 38.9003L80.8835 39.3526L64.9761 120.306L62.6743 119.854Z" fill="#28283A"/>
<path d="M64.9856 120.294L80.893 39.34L83.1948 39.7923L67.2874 120.746L64.9856 120.294Z" fill="#282839"/>
<path d="M67.2792 120.745L83.1866 39.7917L85.4884 40.244L69.581 121.198L67.2792 120.745Z" fill="#272738"/>
<path d="M69.5878 121.2L85.4952 40.2465L87.797 40.6988L71.8896 121.652L69.5878 121.2Z" fill="#262637"/>
<path d="M71.8809 121.652L87.7883 40.6984L90.0901 41.1507L74.1827 122.104L71.8809 121.652Z" fill="#252536"/>
<path d="M74.1895 122.107L90.0969 41.1531L92.3987 41.6054L76.4913 122.559L74.1895 122.107Z" fill="#252534"/>
<path d="M76.483 122.558L92.3904 41.6047L94.6922 42.057L78.7848 123.011L76.483 122.558Z" fill="#242433"/>
<path d="M78.7916 123.013L94.699 42.0594L97.0008 42.5117L81.0934 123.465L78.7916 123.013Z" fill="#232332"/>
<path d="M81.085 123.465L96.9924 42.5114L99.2942 42.9637L83.3868 123.917L81.085 123.465Z" fill="#222231"/>
<path d="M83.3936 123.919L99.301 42.9659L101.603 43.4182L85.6953 124.372L83.3936 123.919Z" fill="#222230"/>
<path d="M85.687 124.371L101.594 43.4178L103.896 43.8701L87.9887 124.824L85.687 124.371Z" fill="#21212F"/>
<path d="M87.9956 124.826L103.903 43.8726L106.205 44.3249L90.2974 125.278L87.9956 124.826Z" fill="#20202E"/>
<path d="M90.289 125.278L106.196 44.3241L108.498 44.7764L92.5908 125.73L90.289 125.278Z" fill="#20202D"/>
<path d="M92.5975 125.733L108.505 44.7791L110.807 45.2314L94.8993 126.185L92.5975 125.733Z" fill="#1F1F2C"/>
<path d="M94.8911 126.184L110.798 45.2307L113.1 45.683L97.1928 126.637L94.8911 126.184Z" fill="#1E1E2B"/>
<path d="M97.1997 126.639L113.107 45.6855L115.409 46.1378L99.5015 127.091L97.1997 126.639Z" fill="#1D1D2A"/>
<path d="M115.404 46.1188L117.704 46.5634L101.881 127.118H99.7195L99.4896 127.072L115.404 46.1188Z" fill="#1D1D29"/>
<path d="M117.704 46.5634L119.391 46.9007V50.1664L104.273 127.118H101.881L117.704 46.5634ZM104.273 127.118L119.391 50.1664V127.118H104.273Z" fill="#1C1C28"/>
<path d="M99.045 123.806C98.7996 123.806 98.5543 123.776 98.309 123.73L51.2397 114.484C50.2584 114.285 49.3998 113.733 48.8479 112.89C48.2959 112.062 48.0813 111.05 48.2806 110.069L61.5581 42.4544C61.9108 40.6913 63.444 39.4187 65.2378 39.4187C65.4831 39.4187 65.7285 39.4494 65.9738 39.4954L113.043 48.7406C115.082 49.1392 116.401 51.117 116.002 53.1409L102.725 120.755C102.372 122.534 100.823 123.806 99.045 123.806Z" fill="white"/>
<path d="M99.045 123.806C98.7996 123.806 98.5543 123.776 98.309 123.73L51.2397 114.484C50.2584 114.285 49.3998 113.733 48.8479 112.89C48.2959 112.062 48.0813 111.05 48.2806 110.069L61.5581 42.4544C61.9108 40.6913 63.444 39.4187 65.2378 39.4187C65.4831 39.4187 65.7285 39.4494 65.9738 39.4954L113.043 48.7406C115.082 49.1392 116.401 51.117 116.002 53.1409L102.725 120.755C102.372 122.534 100.823 123.806 99.045 123.806Z" fill="white"/>
<path d="M98.1557 121.69C97.941 121.69 97.7264 121.675 97.5117 121.629L56.1459 113.503C55.2873 113.334 54.536 112.844 54.0454 112.108C53.5548 111.372 53.3708 110.498 53.5548 109.624L65.2225 50.2125C65.5291 48.6639 66.8783 47.5447 68.4575 47.5447C68.6722 47.5447 68.8868 47.56 69.1015 47.606L110.467 55.732C112.246 56.0846 113.426 57.8171 113.074 59.611L101.406 119.023C101.084 120.571 99.7349 121.69 98.1557 121.69Z" fill="white"/>
<path d="M103.399 42.0864C103.614 41.6724 103.798 41.2278 103.89 40.7372C104.442 38.0081 102.648 35.3556 99.9189 34.819L86.0587 32.0899C83.3296 31.5533 80.6772 33.3318 80.1405 36.0609C80.0486 36.5362 80.0485 36.9962 80.0792 37.4561C76.3382 36.9962 73.1491 38.1461 72.6585 40.7065L108.566 48.0046C109.057 45.5514 106.788 43.1596 103.399 42.0864Z" fill="#514DDF"/>
<path d="M108.566 49.3845C108.474 49.3845 108.382 49.3692 108.29 49.3538L72.3978 42.0558C71.6619 41.9025 71.1866 41.1819 71.3246 40.4459C71.8765 37.5942 74.7896 35.8463 78.776 35.9843C78.7913 35.923 78.7913 35.8616 78.8066 35.785C79.4812 32.3199 82.8696 30.0508 86.3346 30.7254L100.195 33.4545C101.881 33.7918 103.338 34.7577 104.288 36.1836C105.239 37.6095 105.576 39.3113 105.239 40.9825C105.224 41.0745 105.193 41.1665 105.178 41.2739C108.535 42.7917 110.452 45.5362 109.915 48.2653C109.839 48.6179 109.639 48.9399 109.333 49.1392C109.103 49.3078 108.827 49.3845 108.566 49.3845ZM74.7743 39.756L107.002 46.3028C106.435 45.1222 104.963 44.0183 102.985 43.3897C102.602 43.267 102.295 42.9757 102.127 42.6077C101.973 42.2398 101.989 41.8105 102.173 41.4578C102.357 41.0899 102.479 40.7832 102.541 40.4919C102.74 39.526 102.541 38.5601 101.989 37.7475C101.437 36.9349 100.609 36.3676 99.6429 36.1836L85.7827 33.4545C83.7895 33.0712 81.873 34.3591 81.4744 36.3523C81.4131 36.6436 81.4131 36.9655 81.4437 37.3642C81.4744 37.7781 81.3211 38.1768 81.0298 38.4681C80.7385 38.7594 80.3245 38.8821 79.9105 38.8361C77.6874 38.5447 75.8015 38.9127 74.7743 39.756Z" fill="#29293A"/>
<path d="M92.2988 41.3198C91.0263 41.0745 90.2137 39.8479 90.459 38.5754C90.7043 37.3028 91.9309 36.4902 93.2034 36.7355C94.476 36.9809 95.2886 38.2074 95.0433 39.48C94.7826 40.7525 93.5561 41.5651 92.2988 41.3198Z" fill="white"/>
<path d="M84.4052 64.426L107.532 69.1836L107.131 71.1359L84.0035 66.3784L84.4052 64.426ZM65.7099 68.3342L106.002 76.623L105.601 78.5753L65.3082 70.2864L65.7099 68.3342ZM64.1764 75.7694L104.469 84.0584L104.067 86.0108L63.7747 77.7218L64.1764 75.7694ZM62.6461 83.19L102.939 91.4788L102.537 93.4312L62.2444 85.1422L62.6461 83.19ZM61.1127 90.6254L101.405 98.9142L101.004 100.867L60.711 92.5776L61.1127 90.6254ZM59.4897 98.5429L88.4137 104.493L88.012 106.445L59.0881 100.495L59.4897 98.5429Z" fill="#514DDF"/>
</svg>
