<svg width="157" height="157" viewBox="0 0 157 157" fill="none" xmlns="http://www.w3.org/2000/svg">
<path fill-rule="evenodd" clip-rule="evenodd" d="M138.967 154.331C144.177 159.777 147.395 155.905 151.673 151.46C155.95 147.016 159.659 143.654 154.449 138.219C154.449 138.219 81.8273 62.6621 63.8926 44.036L48.4106 60.1486L138.967 154.331Z" fill="#0B2F9F"/>
<path fill-rule="evenodd" clip-rule="evenodd" d="M19.5757 73.2679L25.5997 67.0967C25.5997 67.0967 22.9409 59.5053 26.8359 55.8679C30.731 52.2306 37.3044 54.4784 37.3044 54.4784L58.4474 33.1958C58.4474 33.1958 56.9659 22.1306 58.9281 20.0871C60.8904 18.0437 82.8182 6.91708 84.9374 4.68972L80.4341 0C80.4341 0 49.7449 3.84169 46.419 7.29512C44.4665 9.33857 29.8578 24.7053 19.4384 35.556C19.4384 35.556 22.0481 43.3109 18.6142 46.887C15.1705 50.4732 7.41973 47.9087 7.41973 47.9087C3.76018 51.7197 1.30739 54.2638 1.30739 54.2638C-1.27293 56.9714 0.247791 60.7722 3.41679 64.0724L10.1472 71.0814C13.3358 74.3918 16.9954 75.955 19.5757 73.2679Z" fill="#0B2F9F"/>
<path fill-rule="evenodd" clip-rule="evenodd" d="M114.596 57.942C125.163 63.163 138.418 61.5589 147.189 52.4247C153.959 45.3748 156.647 35.6786 155.205 26.5648L140.282 42.0848L127.586 45.3645L113.243 30.6313L116.608 16.9708L131.393 1.76752C122.632 0.275802 112.732 2.43164 105.963 9.49176C97.1817 18.6362 95.9848 32.7769 100.998 43.7911L91.246 53.9368C95.5334 58.3813 100.115 63.1528 104.864 68.0877L114.596 57.942Z" fill="#0B2F9F"/>
<path fill-rule="evenodd" clip-rule="evenodd" d="M72.3989 104.982L57.6331 89.6156L44.8001 102.99C43.9956 103.807 43.4266 104.737 43.0243 105.708C42.2689 105.401 41.847 105.391 41.5821 105.503C39.1293 104.655 36.5392 104.083 33.8215 104.083C20.2723 104.083 9.29367 115.373 9.29367 129.31C9.29367 143.246 20.2723 154.536 33.8215 154.536C47.3707 154.536 58.3493 143.246 58.3493 129.31C58.3493 126.418 57.7705 123.68 56.9169 121.095C56.8678 120.85 56.858 120.625 56.7207 120.267C57.741 119.828 58.7025 119.235 59.5463 118.347L72.3989 104.982ZM33.8215 144.002C25.8549 144.002 19.4089 137.432 19.4089 129.31C19.4089 121.187 25.845 114.617 33.8215 114.617C41.7979 114.617 48.234 121.187 48.234 129.31C48.234 137.432 41.7881 144.002 33.8215 144.002Z" fill="#0B2F9F"/>
</svg>
